<svg xmlns="http://www.w3.org/2000/svg" viewBox="0 0 91.67 75.62"><defs><style>.cls-1{fill:none;}.cls-2{fill:#959595;}</style></defs><title>5</title><g id="Layer_2" data-name="Layer 2"><g id="Layer_1-2" data-name="Layer 1"><rect class="cls-1" width="91.67" height="75.62"/><rect class="cls-2" x="18.94" y="41.66" width="3.35" height="2.09" rx="1.05" ry="1.05"/><rect class="cls-2" x="12.78" y="35.63" width="6.69" height="2.09" rx="1.05" ry="1.05"/><path class="cls-2" d="M59.3,13.63H31.58A6.48,6.48,0,0,0,25.1,20.1V59.28a6.48,6.48,0,0,0,6.48,6.48H59.3a6.48,6.48,0,0,0,6.48-6.48V20.1A6.48,6.48,0,0,0,59.3,13.63ZM46.21,51.74a12,12,0,1,1,12-12,12,12,0,0,1-12,12Z"/><path class="cls-2" d="M46.21,30.29A9.72,9.72,0,1,0,55.92,40a9.72,9.72,0,0,0-9.72-9.72ZM53,36.11l-6.29,8.79a1,1,0,0,1-1.41.23h0l-.06,0-4.46-2.59a1,1,0,0,1,1-1.75L45.66,43l5.74-8A1,1,0,1,1,53,36.12Z"/></g></g></svg>