<svg xmlns="http://www.w3.org/2000/svg" viewBox="0 0 91.67 75.62"><defs><style>.cls-1{fill:none;}.cls-2{fill:#959595;}</style></defs><title>6</title><g id="Layer_2" data-name="Layer 2"><g id="Layer_1-2" data-name="Layer 1"><rect class="cls-1" width="91.67" height="75.62"/><g id="Layer_2-2" data-name="Layer 2"><g id="Layer_1-2-2" data-name="Layer 1-2"><path class="cls-2" d="M46.43,25.12h13a1.15,1.15,0,0,1,1.15,1.15h0a1.15,1.15,0,0,1-1.15,1.15h-13a1.15,1.15,0,0,1-1.15-1.15h0A1.15,1.15,0,0,1,46.43,25.12Z"/><rect class="cls-2" x="30.19" y="43.12" width="7.63" height="2.3" rx="1.15" ry="1.15"/><path class="cls-2" d="M31.34,31.28H59.58a1.15,1.15,0,0,1,1.15,1.15h0a1.15,1.15,0,0,1-1.15,1.15H31.34a1.15,1.15,0,0,1-1.15-1.15h0A1.15,1.15,0,0,1,31.34,31.28Z"/><rect class="cls-2" x="30.19" y="36.9" width="30.54" height="2.3" rx="1.15" ry="1.15"/><path class="cls-2" d="M51.32,53.9a5.37,5.37,0,0,1,1.58-4l-1.29-.34c.7,2.09,2.68,6,5.14,3.48,1.43-1.5,2.24-3.9,3.39-5.64a18.18,18.18,0,0,1,6.21-6.16A.77.77,0,0,0,65.57,40a18.2,18.2,0,0,0-5.69,5.15,39.47,39.47,0,0,0-2.31,3.55,9.38,9.38,0,0,1-1.17,2l-.46.81q-2.59,0-2.86-2.35a.78.78,0,0,0-1.29-.34,7.87,7.87,0,0,0-2,5.07C49.72,54.9,51.26,54.89,51.32,53.9Z"/><path class="cls-2" d="M9.86,13.27H81.8c1.74.65,2.09,1.16,2.09,3.08v43.8h7.74a10.94,10.94,0,0,0,0,1.72A1.81,1.81,0,0,1,90.32,64c-.17.07-.34.17-.52.23a20.08,20.08,0,0,1-7.07,1.39h-73A21.41,21.41,0,0,1,4,64.88,22.66,22.66,0,0,1,.77,63.61a1.3,1.3,0,0,1-.7-.81A25.05,25.05,0,0,1,0,60.12H7.89V15.8a2.32,2.32,0,0,1,1.73-2.4Zm1,3.21V60.06h70.1V16.49Z"/></g></g></g></g></svg>