<svg xmlns="http://www.w3.org/2000/svg" viewBox="0 0 91.67 75.62"><defs><style>.cls-1{fill:#959595;}.cls-2{fill:none;}</style></defs><title>7</title><g id="Layer_2" data-name="Layer 2"><g id="Layer_1-2" data-name="Layer 1"><g id="Layer_2-2" data-name="Layer 2"><g id="Layer_1-2-2" data-name="Layer 1-2"><path class="cls-1" d="M23.12,10.69h-1.3a1.08,1.08,0,0,1-1.08-1.08h0a1.08,1.08,0,0,1,1.08-1.08h1.3A1.08,1.08,0,0,1,24.2,9.61h0A1.08,1.08,0,0,1,23.12,10.69Z"/><path class="cls-1" d="M20.2,4.46H15.45a1.08,1.08,0,0,1-1.08-1.08h0a1.08,1.08,0,0,1,1.08-1.08H20.2a1.08,1.08,0,0,1,1.08,1.08h0A1.08,1.08,0,0,1,20.2,4.46Z"/><path class="cls-1" d="M60.52,12.84H31.85a6.7,6.7,0,0,0-6.7,6.7V60.06a6.7,6.7,0,0,0,6.7,6.7H60.52a6.7,6.7,0,0,0,6.7-6.7V19.54A6.7,6.7,0,0,0,60.52,12.84ZM47.12,34.53H58.89a1,1,0,1,1,0,2.09H47.13a1,1,0,0,1,0-2.09ZM38.27,53H33.44a1,1,0,0,1,0-2.09h4.84a1,1,0,0,1,0,2.09ZM59,47.3H33.44a1,1,0,0,1,0-2.09H59a1,1,0,0,1,0,2.09Zm0-5.1H33.44a1,1,0,0,1,0-2.09H59a1,1,0,0,1,0,2.09Z"/></g></g><rect class="cls-2" width="91.67" height="75.62"/></g></g></svg>