<svg xmlns="http://www.w3.org/2000/svg" viewBox="0 0 95.41 75.62"><defs><style>.cls-1{fill:#f47682;}.cls-2{fill:none;}</style></defs><title>1</title><g id="Layer_2" data-name="Layer 2"><g id="Layer_1-2" data-name="Layer 1"><rect class="cls-1" x="69.51" y="62.01" width="17.29" height="1.85" rx="0.54" ry="0.54" transform="translate(-19.47 86.13) rotate(-52.21)"/><path class="cls-1" d="M73.49,70.61a1,1,0,0,1-.64-.22l-.6-.46a1,1,0,0,1-.18-1.46L82,55.66a1,1,0,0,1,.69-.4,1.05,1.05,0,0,1,.77.21l.6.46a1,1,0,0,1,.19,1.46L74.31,70.21A1,1,0,0,1,73.49,70.61Zm9.36-14.35-10,12.81a0,0,0,0,0,0,.06l.6.46,10-12.81Z"/><path class="cls-1" d="M20.12,12.55h-1.3a1.09,1.09,0,0,1-1.09-1.09h0a1.09,1.09,0,0,1,1.09-1.09h1.3a1.09,1.09,0,0,1,1.09,1.09h0A1.09,1.09,0,0,1,20.12,12.55Z"/><path class="cls-1" d="M17.19,6.28H12.42A1.09,1.09,0,0,1,11.33,5.2h0a1.09,1.09,0,0,1,1.09-1.09h4.78A1.09,1.09,0,0,1,18.28,5.2h0A1.09,1.09,0,0,1,17.19,6.28Z"/><circle class="cls-1" cx="74.42" cy="57.72" r="1.44"/><path class="cls-1" d="M74.42,61.16a3.44,3.44,0,1,1,3.44-3.44A3.44,3.44,0,0,1,74.42,61.16Zm0-4a.56.56,0,1,0,.56.56A.56.56,0,0,0,74.42,57.16Z"/><circle class="cls-1" cx="83.08" cy="68.03" r="1.44"/><path class="cls-1" d="M83.08,71.46A3.44,3.44,0,1,1,86.52,68,3.44,3.44,0,0,1,83.08,71.46Zm0-4a.56.56,0,1,0,.56.56A.56.56,0,0,0,83.08,67.46Z"/><path class="cls-1" d="M56.62,62.61A15.36,15.36,0,0,0,57.7,68.9a6.73,6.73,0,0,0,6.73-6.73V56a3.62,3.62,0,0,0-3.36-2.49C58.49,53.54,56.62,56.69,56.62,62.61Z"/><path class="cls-1" d="M61.24,51.24a6.17,6.17,0,0,1,3.22.84V21.44a6.73,6.73,0,0,0-6.73-6.73H28.9a6.73,6.73,0,0,0-6.73,6.73V62.17A6.73,6.73,0,0,0,28.9,68.9H54.71a18.29,18.29,0,0,1-1-6.32C53.67,55.28,56.82,51.24,61.24,51.24ZM57.12,37.56a1,1,0,0,1-1,1H44.26a1,1,0,1,1,0-2.1H56.07A1,1,0,0,1,57.12,37.56ZM43.87,18.64A6.83,6.83,0,1,1,37,25.47,6.84,6.84,0,0,1,43.87,18.64ZM30.5,42.12H56.24a1,1,0,1,1,0,2.1H30.5a1,1,0,1,1,0-2.1Zm0,5.12H56.24a1,1,0,0,1,0,2.1H30.5a1,1,0,0,1,0-2.1ZM35.36,55H30.5a1,1,0,0,1,0-2.1h4.86a1,1,0,1,1,0,2.1Z"/><path class="cls-1" d="M43.87,29.31A3.83,3.83,0,1,0,40,25.47,3.84,3.84,0,0,0,43.87,29.31Zm.7-3h.89v.86h-.89Zm-1.89-2.71h1.44v3.57h-.91V24.38h-.54Z"/><path class="cls-1" d="M64.45,52.11V56l.05.12V56a16,16,0,0,1,1,6.38c0,5.56-1.44,9.07-4.46,9.07H61c-1.41,0-2.56-.9-3.37-2.59h-3c1.21,3.16,3.37,4.87,6.17,4.87,4.82,0,7.57-4.09,7.57-11.49C68.44,57.18,67,53.63,64.45,52.11Z"/><rect class="cls-1" x="44.57" y="26.28" width="0.89" height="0.86"/><rect class="cls-2" width="95.41" height="75.62"/></g></g></svg>