<svg xmlns="http://www.w3.org/2000/svg" viewBox="0 0 91.67 75.62"><defs><style>.cls-1{fill:#f47682;}.cls-2{fill:none;}</style></defs><title>2</title><g id="Layer_2" data-name="Layer 2"><g id="Layer_1-2" data-name="Layer 1"><path class="cls-1" d="M80.44,28.78h2.12a1.11,1.11,0,0,1,1.11,1.11h0A1.11,1.11,0,0,1,82.56,31H80.44a1.11,1.11,0,0,1-1.11-1.11h0A1.11,1.11,0,0,1,80.44,28.78Z"/><path class="cls-1" d="M84.1,22.37h6.46a1.11,1.11,0,0,1,1.11,1.11h0a1.11,1.11,0,0,1-1.11,1.11H84.1A1.11,1.11,0,0,1,83,23.48h0A1.11,1.11,0,0,1,84.1,22.37Z"/><path class="cls-1" d="M13.06,17.17h6.11a1.11,1.11,0,0,1,1.11,1.11h0a1.11,1.11,0,0,1-1.11,1.11H13.06a1.11,1.11,0,0,1-1.11-1.11h0A1.11,1.11,0,0,1,13.06,17.17Z"/><path class="cls-1" d="M82.88,48.81a6.5,6.5,0,0,0-6.49-6.48H75a6.5,6.5,0,0,0-6.48,6.48v5.94H21.35V47.87a6.5,6.5,0,0,0-6.48-6.48H13.5A6.5,6.5,0,0,0,7,47.85V59.73a6.41,6.41,0,0,0,.57,2.61,6.23,6.23,0,0,0,6,4.84H20a3.38,3.38,0,0,1,6.76,0H63.56a3.38,3.38,0,0,1,6.76,0h6.75A6.23,6.23,0,0,0,83.26,61C83.26,60.2,82.88,48.81,82.88,48.81Z"/><ellipse class="cls-1" cx="23.52" cy="67.17" rx="2.36" ry="2.76"/><ellipse class="cls-1" cx="66.97" cy="67.17" rx="2.36" ry="2.76"/><path class="cls-2" d="M0,0V75.62H91.67V0ZM71.87,42a6.16,6.16,0,0,0-4.71,6v5.62H22.39V47a6.16,6.16,0,0,0-4-5.73V36a6.16,6.16,0,0,1,6.14-6.14H65.73A6.16,6.16,0,0,1,71.87,36Z"/><path class="cls-1" d="M65.73,29.89H24.57A6.16,6.16,0,0,0,18.43,36v5.22a6.16,6.16,0,0,1,4,5.73v6.56H67.16V47.92a6.16,6.16,0,0,1,4.71-6V36A6.16,6.16,0,0,0,65.73,29.89ZM32,43.51a1.19,1.19,0,1,1,1.19-1.19A1.19,1.19,0,0,1,32,43.51Zm14,0a1.19,1.19,0,1,1,1.19-1.19A1.19,1.19,0,0,1,46,43.51Zm12.71,0a1.19,1.19,0,1,1,1.19-1.19A1.19,1.19,0,0,1,58.68,43.51Z"/></g></g></svg>