<svg xmlns="http://www.w3.org/2000/svg" viewBox="0 0 91.67 75.62"><defs><style>.cls-1{fill:none;}.cls-2{fill:#fff;}</style></defs><title>1</title><g id="Layer_2" data-name="Layer 2"><g id="Layer_1-2" data-name="Layer 1"><rect class="cls-1" width="91.67" height="75.62"/><path class="cls-2" d="M59.3,13.86H31.58a6.48,6.48,0,0,0-6.48,6.48V59.52A6.48,6.48,0,0,0,31.58,66H59.3a6.48,6.48,0,0,0,6.48-6.48V20.34A6.48,6.48,0,0,0,59.3,13.86ZM46.21,52a12,12,0,1,1,12-12,12,12,0,0,1-12,12Z"/><path class="cls-2" d="M46.21,30.52a9.72,9.72,0,1,0,9.72,9.72,9.72,9.72,0,0,0-9.72-9.72ZM53,36.35l-6.29,8.79a1,1,0,0,1-1.41.23h0l-.06,0-4.46-2.59a1,1,0,0,1,1-1.75l3.83,2.21,5.74-8A1,1,0,1,1,53,36.35Z"/></g></g></svg>