<svg xmlns="http://www.w3.org/2000/svg" viewBox="0 0 91.05 91.05"><defs><style>.cls-1{fill:#aa4ccb;}.cls-2{fill:none;}</style></defs><title>lidz 1000</title><g id="Layer_2" data-name="Layer 2"><g id="Layer_1-2" data-name="Layer 1"><path class="cls-1" d="M18.53,41V37.14h6.9V54.2H21.09V41Z"/><path class="cls-1" d="M27.87,45.49a10.9,10.9,0,0,1,1.62-6.31,5.84,5.84,0,0,1,5.16-2.33,5.85,5.85,0,0,1,5.15,2.33,10.84,10.84,0,0,1,1.63,6.31,10.94,10.94,0,0,1-1.63,6.35,5.84,5.84,0,0,1-5.15,2.34,5.83,5.83,0,0,1-5.16-2.34A11,11,0,0,1,27.87,45.49Zm9.46,0A8.93,8.93,0,0,0,36.79,42a2.11,2.11,0,0,0-2.14-1.22A2.15,2.15,0,0,0,32.48,42a8.77,8.77,0,0,0-.56,3.5A8.93,8.93,0,0,0,32.48,49a2.14,2.14,0,0,0,2.17,1.24A2.1,2.1,0,0,0,36.79,49,9.12,9.12,0,0,0,37.33,45.49Z"/><path class="cls-1" d="M43.41,45.49A10.9,10.9,0,0,1,45,39.18a5.84,5.84,0,0,1,5.16-2.33,5.85,5.85,0,0,1,5.15,2.33A10.84,10.84,0,0,1,57,45.49a10.94,10.94,0,0,1-1.63,6.35,5.84,5.84,0,0,1-5.15,2.34A5.83,5.83,0,0,1,45,51.83,11,11,0,0,1,43.41,45.49Zm9.46,0A8.93,8.93,0,0,0,52.33,42a2.11,2.11,0,0,0-2.14-1.22A2.15,2.15,0,0,0,48,42a8.77,8.77,0,0,0-.56,3.5A8.93,8.93,0,0,0,48,49a2.14,2.14,0,0,0,2.17,1.24A2.1,2.1,0,0,0,52.33,49,9.12,9.12,0,0,0,52.87,45.49Z"/><path class="cls-1" d="M59,45.49a10.9,10.9,0,0,1,1.62-6.31,5.84,5.84,0,0,1,5.16-2.33,5.85,5.85,0,0,1,5.15,2.33,10.84,10.84,0,0,1,1.63,6.31,10.94,10.94,0,0,1-1.63,6.35,5.84,5.84,0,0,1-5.15,2.34,5.83,5.83,0,0,1-5.16-2.34A11,11,0,0,1,59,45.49Zm9.46,0A8.93,8.93,0,0,0,67.87,42a2.11,2.11,0,0,0-2.14-1.22A2.15,2.15,0,0,0,63.56,42a8.77,8.77,0,0,0-.56,3.5A8.93,8.93,0,0,0,63.56,49a2.14,2.14,0,0,0,2.17,1.24A2.1,2.1,0,0,0,67.87,49,9.12,9.12,0,0,0,68.41,45.49Z"/><path class="cls-1" d="M45.52,88.56a43,43,0,1,1,43-43A43.08,43.08,0,0,1,45.52,88.56Zm0-78.95A35.91,35.91,0,1,0,81.44,45.52,36,36,0,0,0,45.52,9.61Z"/><rect class="cls-2" width="91.05" height="91.05"/></g></g></svg>