<svg xmlns="http://www.w3.org/2000/svg" viewBox="0 0 91.05 91.05"><defs><style>.cls-1,.cls-2{fill:#aa4ccb;}.cls-2{stroke:#aa4ccb;stroke-miterlimit:10;stroke-width:3px;}.cls-3{fill:none;}</style></defs><title>atmaksas termins</title><g id="Layer_2" data-name="Layer 2"><g id="Layer_1-2" data-name="Layer 1"><path class="cls-1" d="M14.71,67a2.51,2.51,0,0,1-2.56-2,2.54,2.54,0,0,1-.06-.55q0-17.44,0-34.88v-.21H67.32v.25q0,3.4,0,6.8a25.53,25.53,0,0,1,5,1.74q0-9.39,0-18.79a7.36,7.36,0,0,0-.5-2.75,7.53,7.53,0,0,0-7.16-4.85h-4.9V12q0,2.32,0,4.64a6.4,6.4,0,0,1,0,.72,5,5,0,0,1-10-.68c0-1.56,0-3.12,0-4.68v-.26H29.66V12c0,1.53,0,3.05,0,4.58a7.07,7.07,0,0,1-.05.89,5,5,0,0,1-7.07,3.85,4.86,4.86,0,0,1-2.91-4.59c0-1.57,0-3.15,0-4.72v-.26h-.18c-1.6,0-3.2,0-4.81,0a8,8,0,0,0-1.42.13,7.51,7.51,0,0,0-6.14,7.42q0,22.58,0,45.15a7.32,7.32,0,0,0,.26,2A7.53,7.53,0,0,0,14.66,72H38a25.52,25.52,0,0,1-1.67-5Z"/><path class="cls-1" d="M52.27,17a2.51,2.51,0,0,0,5-.28q0-1.87,0-3.75t0-3.79a2.51,2.51,0,0,0-5,0q0,3.78,0,7.56A2.24,2.24,0,0,0,52.27,17Z"/><path class="cls-1" d="M22.15,17.14a2.51,2.51,0,0,0,5-.29q0-3.83,0-7.66a2.51,2.51,0,0,0-5,.06c0,1.26,0,2.51,0,3.77s0,2.44,0,3.66A3.34,3.34,0,0,0,22.15,17.14Z"/><path class="cls-1" d="M61.45,39.24A22.53,22.53,0,1,0,84,61.77,22.53,22.53,0,0,0,61.45,39.24Zm0,38.42A15.66,15.66,0,1,1,77.1,62,15.66,15.66,0,0,1,61.45,77.66Z"/><rect class="cls-2" x="58.73" y="53.61" width="1.44" height="10.16" rx="0.72" ry="0.72"/><rect class="cls-2" x="62.93" y="60.62" width="1.44" height="10.16" rx="0.72" ry="0.72" transform="translate(149.87 35.17) rotate(114.6)"/><rect class="cls-3" width="91.05" height="91.05"/></g></g></svg>