<svg xmlns="http://www.w3.org/2000/svg" viewBox="0 0 91.05 91.05"><defs><style>.cls-1{fill:#aa4ccb;}.cls-2{fill:none;}</style></defs><title>vienadi maksajumi</title><g id="Layer_2" data-name="Layer 2"><g id="Layer_1-2" data-name="Layer 1"><path class="cls-1" d="M10.54,38.24c.17-1.52.3-3,.52-4.55a25.58,25.58,0,0,1,4.06-11,20.71,20.71,0,0,1,5.38-5.14,46.22,46.22,0,0,1,4.9-3.05,27.41,27.41,0,0,1,9.27-2.82,34.26,34.26,0,0,1,13.09.9,46.8,46.8,0,0,1,9.83,3.79A13.09,13.09,0,0,0,58.9,17a2,2,0,0,0,2.74-1.41c.49-2,.92-4.09,1.36-6.14.13-.58.24-1.24.92-1.37s1,.48,1.32,1l7,11.61,7.67,12.69a4.18,4.18,0,0,1,.45.89,2,2,0,0,1-1.61,2.63q-6,1.31-11.92,2.59L55.8,41.84a4.24,4.24,0,0,1-1.06.11c-.88,0-1.34-.61-1.05-1.45.35-1,.84-2,1.27-3s.8-1.76,1.13-2.66a4.06,4.06,0,0,0-1.69-5A66.07,66.07,0,0,0,43.7,24a37.5,37.5,0,0,0-10.24-2.93,19.69,19.69,0,0,0-8.95.74,15.21,15.21,0,0,0-7,5,25.39,25.39,0,0,0-4.21,8.43,61.34,61.34,0,0,0-2,10.93,5.51,5.51,0,0,1-.13.58H11c-.08-.53-.16-1.06-.23-1.58s-.16-1.28-.24-1.92Q10.54,40.76,10.54,38.24Z"/><path class="cls-1" d="M79.49,53.56c-.12,1.21-.23,2.41-.37,3.62a27,27,0,0,1-4.38,12.7,17.8,17.8,0,0,1-2.88,3.22,32.48,32.48,0,0,1-10.74,6.5,31.72,31.72,0,0,1-12.64,1.58,42.34,42.34,0,0,1-13.73-3.61c-1.06-.45-2.08-1-3.1-1.54a2.61,2.61,0,0,0-4.1,1.64c-.37,1.37-.88,2.71-1.38,4C26,82.27,25.76,82.94,25,83s-1-.53-1.28-1q-2.24-4.22-4.45-8.45c-2.43-4.62-4.84-9.24-7.29-13.85-1-1.85-.37-3.42,1.63-4l18-5.5a11.74,11.74,0,0,1,1.89-.47c1.15-.15,1.82.49,1.62,1.63s-.59,2.4-.91,3.59c-.25,1-.53,1.9-.79,2.85A4.51,4.51,0,0,0,35.57,63a70.35,70.35,0,0,0,10.32,5.33,36.86,36.86,0,0,0,12.89,3.07,16.85,16.85,0,0,0,11.5-3.62,17.39,17.39,0,0,0,4.19-5.12C77,58,78.06,52.94,78.63,47.76c.07-.65.16-1.29.24-1.93,0,0,.06-.09.25-.15l.37,3Z"/><rect class="cls-2" width="91.05" height="91.05"/></g></g></svg>