<svg xmlns="http://www.w3.org/2000/svg" viewBox="0 0 91.67 75.62"><defs><style>.cls-1{fill:none;}.cls-2{fill:#aa4ccb;}</style></defs><title>3</title><g id="Layer_2" data-name="Layer 2"><g id="Layer_1-2" data-name="Layer 1"><rect class="cls-1" width="91.67" height="75.62"/><path class="cls-2" d="M74.78,39.21A16.77,16.77,0,0,0,58.14,21.36C49,21.41,40.9,28.2,40.9,37.29H58.52A2.46,2.46,0,0,1,61,39.76V55.61C69.41,54,74.31,47.52,74.78,39.21ZM60.26,36.4a1.2,1.2,0,0,1-.78-1.13V25.18A1.19,1.19,0,0,1,60.66,24h.14a13.61,13.61,0,0,1,8.11,4.11A12.19,12.19,0,0,1,72,37.61a1,1,0,0,1-.93.84H62.63a1.22,1.22,0,0,1-1.13-.78A2,2,0,0,0,60.26,36.4Z"/><path class="cls-2" d="M20.41,19.39v.29a.55.55,0,0,0,.55.55h1.16a.55.55,0,0,0,.55-.55v-.29a.55.55,0,0,0-.55-.55H21A.53.53,0,0,0,20.41,19.39Z"/><path class="cls-2" d="M16.79,16.14h3.42a.55.55,0,0,0,.55-.55V15.3a.55.55,0,0,0-.55-.55H16.79a.55.55,0,0,0-.55.55v.29A.53.53,0,0,0,16.79,16.14Z"/><path class="cls-2" d="M53.27,42.25H10.56a2.19,2.19,0,0,0-1.42.38c-.7.26-1,.84-1,1.85V67.14c0,1.42.61,2,2,2H52.9a2.19,2.19,0,0,0,1.42-.38c.7-.26,1-.87,1-1.85V44.28C55.3,42.86,54.69,42.25,53.27,42.25ZM36,63.49a7.85,7.85,0,0,1-10.49-4.67c-.17-.46-.38-.58-.81-.55s-.9,0-1.42,0l.35-1.68H25v-.81H23.83q.09-.43.17-.78c.2-.87.2-.87,1.1-1a12.85,12.85,0,0,1,.41-1.28,7.87,7.87,0,0,1,7.82-5.36,13,13,0,0,1,2.87.72c.12,0,.29.26.26.35-.2,1.1-.46,2.17-.7,3.27-3.13-1.77-6.4-.7-7.1,2.32h6.58l-.35,1.71H28.35l.06.81h6.32l-.35,1.68H29c.75,2.52,4.17,3.19,6.9,1.33.14.7.29,1.36.43,2a4.62,4.62,0,0,0,.17.87C36.76,63.06,36.52,63.29,36,63.49Z"/><path class="cls-2" d="M39.39,38.31H38.15a2.81,2.81,0,0,1,0,.49,22,22,0,0,1-3.39.26l-.2-.09v-.67h-1v.09a1.22,1.22,0,0,0,1.22,1.22h3.39a1.31,1.31,0,0,0,.87-.35,1.18,1.18,0,0,0,.35-.87Z"/><path class="cls-2" d="M34.53,39l.23.06a22.27,22.27,0,0,0,3.39-.26,2.81,2.81,0,0,1,0-.49H34.55A5.82,5.82,0,0,0,34.53,39Z"/><path class="cls-2" d="M34.55,38.31h0a5.13,5.13,0,0,0,0,.67A5.13,5.13,0,0,1,34.55,38.31Z"/><path class="cls-2" d="M57.59,15.91a23,23,0,0,0-23,21.27c.06,0,.12,0,.2,0h3.45A19.4,19.4,0,1,1,61.07,58L61,61.61v.09a23,23,0,0,0-3.42-45.79Z"/><path class="cls-2" d="M57.24,38.31H39.39v.09a1.29,1.29,0,0,1-1.25,1.25H34.79a1.22,1.22,0,0,1-1.22-1.22v-.09H16a2.6,2.6,0,0,0-2.61,2.61v.29H54.09c1.42,0,2,.61,2,2V64.19h1.1a2.6,2.6,0,0,0,2.61-2.61V40.92A2.57,2.57,0,0,0,57.24,38.31Z"/><path class="cls-2" d="M39.42,38.4v-.09h0a.05.05,0,0,0,0,.09,1.26,1.26,0,0,1-.38.87A1.33,1.33,0,0,0,39.42,38.4Z"/><path class="cls-2" d="M62.05,31.09a4.31,4.31,0,0,0,.38-.38l0,.55v3.56h1.13V29.56h-.9l-1.71,1.36.55.67Z"/><path class="cls-2" d="M68.08,34.45a1.69,1.69,0,0,0,.55-1.36,1.53,1.53,0,0,0-.46-1.19A1.69,1.69,0,0,0,67,31.47a2.67,2.67,0,0,0-.55.06l-.12,0,.09-1h1.88v-1H65.39l-.2,2.69.43.23L66,32.4a2.19,2.19,0,0,1,.43,0c.7,0,1.07.26,1.07.81s-.35.84-1,.84a3.29,3.29,0,0,1-.72-.09,2.29,2.29,0,0,1-.67-.26v1a3,3,0,0,0,1.42.29A2.2,2.2,0,0,0,68.08,34.45Z"/><path class="cls-2" d="M57.42,14.58c2.87,0,5.19.46,5.19-.61S60.29,12,57.42,12s-5.19.87-5.19,1.94S54.55,14.58,57.42,14.58Z"/></g></g></svg>