<svg xmlns="http://www.w3.org/2000/svg" viewBox="0 0 91.67 75.62"><defs><style>.cls-1{fill:none;}.cls-2{fill:#aa4ccb;}</style></defs><title>4</title><g id="Layer_2" data-name="Layer 2"><g id="Layer_1-2" data-name="Layer 1"><path class="cls-1" d="M0,0V75.62H91.67V0ZM65.81,64.53a3.89,3.89,0,0,1-3.89,3.89H29.75a3.89,3.89,0,0,1-3.89-3.89V17.66a3.89,3.89,0,0,1,3.89-3.89H61.92a3.89,3.89,0,0,1,3.89,3.89Z"/><path class="cls-2" d="M61.92,13.78H29.75a3.89,3.89,0,0,0-3.89,3.89V64.53a3.89,3.89,0,0,0,3.89,3.89H61.92a3.89,3.89,0,0,0,3.89-3.89V17.66A3.89,3.89,0,0,0,61.92,13.78ZM43.14,18.24a.32.32,0,0,1,.32-.32h4.75a.32.32,0,0,1,.32.32h0a.32.32,0,0,1-.32.32H43.46a.32.32,0,0,1-.32-.32Zm-10.26,1.4H58.79a.57.57,0,0,1,0,1.13H32.88a.57.57,0,1,1,0-1.13ZM61,60.23a3.89,3.89,0,0,1-3.89,3.89H34.52a3.89,3.89,0,0,1-3.89-3.89V26.41a3.89,3.89,0,0,1,3.89-3.89H57.15A3.89,3.89,0,0,1,61,26.41Z"/><path class="cls-2" d="M46.35,38.69h6.82a.61.61,0,0,0,0-1.21H46.35a.61.61,0,0,0,0,1.21Z"/><path class="cls-2" d="M41.21,47H38.4a.61.61,0,0,0,0,1.21h2.81a.61.61,0,1,0,0-1.21Z"/><path class="cls-2" d="M38.4,41.93H53.26a.61.61,0,1,0,0-1.21H38.4a.61.61,0,0,0,0,1.21Z"/><path class="cls-2" d="M38.4,44.89H53.26a.61.61,0,1,0,0-1.21H38.4a.61.61,0,0,0,0,1.21Z"/><path class="cls-2" d="M57.23,51.7a9.58,9.58,0,0,0-3,2.71A20.77,20.77,0,0,0,53,56.28a4.93,4.93,0,0,1-.62,1.08l-.24.43a1.29,1.29,0,0,1-1.5-1.24.41.41,0,0,0-.68-.18A4.14,4.14,0,0,0,48.92,59c0,.52.78.52.81,0v0a2.82,2.82,0,0,1,.43-1.57,6.79,6.79,0,0,1-.28-.7l.68.18a2.81,2.81,0,0,0-.4.52c.49,1.07,1.38,2.23,2.43,1.14a20.76,20.76,0,0,0,1.79-3,9.57,9.57,0,0,1,3.27-3.24.41.41,0,1,0-.41-.7Z"/><path class="cls-2" d="M49.88,56.77a6.79,6.79,0,0,0,.28.7,2.81,2.81,0,0,1,.4-.52Z"/></g></g></svg>