<svg xmlns="http://www.w3.org/2000/svg" viewBox="0 0 91.67 75.62"><defs><style>.cls-1{fill:none;}.cls-2{fill:#aa4ccb;}</style></defs><title>2</title><g id="Layer_2" data-name="Layer 2"><g id="Layer_1-2" data-name="Layer 1"><rect class="cls-1" width="91.67" height="75.62"/><g id="Layer_2-2" data-name="Layer 2"><g id="Layer_1-2-2" data-name="Layer 1-2"><path class="cls-2" d="M27.82,56.05a17.74,17.74,0,0,1,.59-4.43,17.19,17.19,0,0,1,4.45-7.79,16.62,16.62,0,0,1,3.64-2.76.41.41,0,0,1,.55.06,10.69,10.69,0,0,0,5.41,2.48,10.93,10.93,0,0,0,8.77-2.37l.39-.32a17,17,0,0,1,8.94,15.12Z"/><path class="cls-2" d="M53.31,32.67a9.09,9.09,0,1,1-8.83-9.12A9.07,9.07,0,0,1,53.31,32.67Z"/></g></g></g></g></svg>