<svg xmlns="http://www.w3.org/2000/svg" viewBox="0 0 91.67 75.62"><defs><style>.cls-1{fill:none;}.cls-2{fill:#aa4ccb;}</style></defs><title>1</title><g id="Layer_2" data-name="Layer 2"><g id="Layer_1-2" data-name="Layer 1"><rect class="cls-1" width="91.67" height="75.62"/><g id="Layer_2-2" data-name="Layer 2"><g id="Layer_1-2-2" data-name="Layer 1-2"><g id="Layer_2-2-2" data-name="Layer 2-2"><g id="Layer_1-2-2-2" data-name="Layer 1-2-2"><path class="cls-2" d="M63.72,39.81A17.62,17.62,0,1,1,46.39,22.19,17.55,17.55,0,0,1,63.72,39.81ZM46.06,56.28a17,17,0,1,0-.37,0Z"/><path class="cls-2" d="M37.7,36.28a6.07,6.07,0,0,1,1.6-4.13A4.64,4.64,0,0,1,40.65,31a1.8,1.8,0,0,1,.58-.2,1.1,1.1,0,0,1,1.05.34,8.53,8.53,0,0,1,1.9,2.9,2.26,2.26,0,0,1,.14,1.38,1.43,1.43,0,0,1-.46.75c-.41.32-.8.66-1.22,1a1.39,1.39,0,0,0-.53,1.6,4.75,4.75,0,0,0,.7,1.41,13.53,13.53,0,0,0,2.73,3.09,9.48,9.48,0,0,0,.81.63,1.56,1.56,0,0,0,2.17-.4h0a3.58,3.58,0,0,1,1.17-1,1.81,1.81,0,0,1,2,.17,13.81,13.81,0,0,1,2.36,2,1.42,1.42,0,0,1,.41,1.22,1.19,1.19,0,0,1-.22.49,6.42,6.42,0,0,1-3.8,2.36,5.66,5.66,0,0,1-2.82-.2,10.54,10.54,0,0,1-4.18-2.41,27.28,27.28,0,0,1-4-4.63,9.9,9.9,0,0,1-1.65-4.18C37.75,36.94,37.73,36.62,37.7,36.28Z"/></g></g></g></g></g></g></svg>