<svg xmlns="http://www.w3.org/2000/svg" viewBox="0 0 91.67 75.62"><defs><style>.cls-1{fill:none;}.cls-2{fill:#aa4ccb;}</style></defs><title>3</title><g id="Layer_2" data-name="Layer 2"><g id="Layer_1-2" data-name="Layer 1"><rect class="cls-1" width="91.67" height="75.62"/><g id="Layer_2-2" data-name="Layer 2"><g id="Layer_1-2-2" data-name="Layer 1-2"><path class="cls-2" d="M43.65,19.58a9.34,9.34,0,0,1,4,2A7.26,7.26,0,0,1,49,30.42a1.2,1.2,0,0,1-1.9.56V26.76A4.49,4.49,0,0,0,42.67,22,4.6,4.6,0,0,0,38,26.74c0,1.9,0,3.8,0,6-.49-.45-.84-.71-1.12-1a7.27,7.27,0,0,1,3.86-11.87c.23-.06.46-.14.69-.21Z"/><path class="cls-2" d="M39.59,38.85v-1c0-3.7,0-7.41,0-11.12a3,3,0,0,1,2.94-3.15,2.94,2.94,0,0,1,3.11,3c0,2.12,0,4.24,0,6.43,1.94-.68,3.4-.2,4.35,1.56,2.49-.64,3.33-.35,4.52,1.43a12.5,12.5,0,0,1,2.26-.18,2.73,2.73,0,0,1,2.48,2.52A78.32,78.32,0,0,1,59,48.56c-.46,3.68-3.16,5.86-6.38,7.37a2.21,2.21,0,0,1-.9.07c-2.37,0-4.74-.07-7.11,0a5.15,5.15,0,0,1-4.58-2.14,30.23,30.23,0,0,1-2.61-4c-1.09-2.06-2-4.21-3-6.3-.45-.94-1-1.85-1.53-2.77a3.12,3.12,0,0,1,.55-4.19A3.06,3.06,0,0,1,37.7,37C38.28,37.62,38.87,38.17,39.59,38.85Z"/></g></g></g></g></svg>