<svg xmlns="http://www.w3.org/2000/svg" viewBox="0 0 91.67 75.62"><defs><style>.cls-1{fill:none;}.cls-2{fill:#aa4ccb;}</style></defs><title>4</title><g id="Layer_2" data-name="Layer 2"><g id="Layer_1-2" data-name="Layer 1"><rect class="cls-1" width="91.67" height="75.62"/><g id="Layer_2-2" data-name="Layer 2"><g id="Layer_1-2-2" data-name="Layer 1-2"><path class="cls-2" d="M41.9,30.37h8a4,4,0,0,0,1.56,2.18c1,.89,2,1.74,3,2.66a15.22,15.22,0,0,1,4.72,8.29,24.69,24.69,0,0,1,.24,6,36.3,36.3,0,0,1-.47,4.33A2.63,2.63,0,0,1,56,56.14H35.64a2.62,2.62,0,0,1-2.84-2.26,35.74,35.74,0,0,1-.48-4.37,22.84,22.84,0,0,1,.41-6.79,15.42,15.42,0,0,1,4.57-7.54c.94-.89,1.95-1.73,2.91-2.6a9.29,9.29,0,0,0,1.06-1.09A7.74,7.74,0,0,0,41.9,30.37ZM39,47.33c.44,0,.85,0,1.25,0s.43.09.54.38a6.43,6.43,0,0,0,3.27,3.73,6,6,0,0,0,5.47,0c.12-.06.29-.21.28-.3-.16-.91-.35-1.82-.54-2.78a3.58,3.58,0,0,1-3.12.91,3.77,3.77,0,0,1-2.57-2H48L48.32,46H43.18l-.05-.66h5.33l.3-1.39H43.35a3.88,3.88,0,0,1,2.07-2.37,3.51,3.51,0,0,1,3.73.52c.18-.85.33-1.66.53-2.45.09-.35,0-.47-.31-.59A6.27,6.27,0,0,0,42,40.8a7.13,7.13,0,0,0-1.48,3.08c-.77.11-.77.11-.94.89,0,.16-.06.32-.09.53h.89V46h-1Z"/><path class="cls-2" d="M49.88,27.61H41.79a3.15,3.15,0,0,0-1.2-1.89c-.63-.59-1.31-1.13-1.88-1.78a2.68,2.68,0,0,1,.81-4.15,2.82,2.82,0,0,1,2.19-.16,20.67,20.67,0,0,1,2.11.76,4.91,4.91,0,0,0,4,0,15.63,15.63,0,0,1,2.52-.83A2.69,2.69,0,0,1,52.9,24c-.57.61-1.22,1.14-1.82,1.71A3.18,3.18,0,0,0,49.88,27.61Z"/></g></g></g></g></svg>