<svg id="Layer_1" data-name="Layer 1" xmlns="http://www.w3.org/2000/svg" viewBox="0 0 152.5 41.57"><title>Atrum.lv logo</title><g id="Layer_2" data-name="Layer 2"><g id="Layer_10" data-name="Layer 10"><path d="M59.93,8.62Z" transform="translate(0.03 0)"/><path d="M54.11,7.38h.23A.58.58,0,0,0,54.11,7.38Z" transform="translate(0.03 0)"/><polygon points="53.16 7.3 52.89 7.26 53.07 7.37 53.16 7.3"/><path d="M52.67,7.67l-.1-.24-.12.25C52.51,7.65,52.62,7.62,52.67,7.67Z" transform="translate(0.03 0)"/><path d="M26.78,41.55a1.14,1.14,0,0,1-.74-.29l-.21-.19h0a3.36,3.36,0,0,1-.25-2.8c1.22-3.42,4.71-10.65,4.71-10.65,1.11-2.49,2.25-5,3.6-7.47a55.72,55.72,0,0,0-7.49.38c-3,.44-6,.68-9,1.25C15.7,22.1,6.89,37,4.21,36.78a1.23,1.23,0,0,1-.66-.19c-1.12-.71-.33-2.39-.08-2.94A15.26,15.26,0,0,1,6.25,30c.51-.56,1-1.12,1.48-1.69,1.09-1.35,2.31-2.7,3.49-4l1.54-1.71C7,23.21,2.29,26.06.83,25.43A1.16,1.16,0,0,1,0,24c.18-.88,1.25-1.27,2-1.53l.15-.06a31.57,31.57,0,0,1,4.39-1.18h.1c.38-.08,7.19-1,8-1.31a10.55,10.55,0,0,0,3.23-2.63l.06-.06.58-.6c1.13-1.13,2.24-2.11,3.42-3.14l.24-.21A120.61,120.61,0,0,1,35.41,2.77l.15-.1c2.26-1.48,4.86-3.18,7.7-2.52h.07A2.12,2.12,0,0,1,44.6,1.47c.63,1.82-.77,4.65-2.4,7.64-.24.43-.48.88-.59,1.13-.31.69-3.1,5.64-4.07,7.24h4.38c2.85,0,6.53.53,7.06,1.41h0a1,1,0,0,1-.09.93h0a.67.67,0,0,1-.62.29L46,19.88a40.44,40.44,0,0,0-9.08,0l-.4.14a.84.84,0,0,0-.46.4c-.36.7-.87,1.86-1.16,2.59s-3.11,6.46-4,8.73c0,0-.79,2-1,2.65s-.51,1.58-.74,2.38l0,.19v.31c-.61,2.91-1.09,4.3-2.2,4.3Zm14.75-39a19.7,19.7,0,0,0-4.36,1.84A64.47,64.47,0,0,0,28.55,11a32.62,32.62,0,0,1-2.67,2.3c-.85.68-1.71,1.37-2.44,2.08s-1.37,1.22-2.15,1.85a29.42,29.42,0,0,0-2.3,2l3.27-.5h.08c2.33-.36,8.37-1.28,10.33-1.25.56,0,1.14,0,1.73,0,1.06-.06,1-.27,1.66-1.42s1.22-2.46,1.88-3.66A37.79,37.79,0,0,0,41.18,5.3c.06-.2.12-.4.19-.6.27-.82.81-2.05.16-2.12Z" transform="translate(0.03 0)"/><path d="M130.36,14.53c.11,0,.11-.13.13-.15C130.3,14.36,130.36,14.57,130.36,14.53Z" transform="translate(0.03 0)"/><polygon points="128.44 14.45 128.49 14.39 128.18 14.49 128.44 14.45"/><path d="M126.66,14.06c.11.31.64.1.93.26v.07l.19-.19A4.53,4.53,0,0,1,126.66,14.06Z" transform="translate(0.03 0)"/><path d="M125.85,13.26c0,.12-.22,0,.21.08h0Z" transform="translate(0.03 0)"/><path d="M126,13.31C126.19,13.31,125.9,13.19,126,13.31Z" transform="translate(0.03 0)"/><path d="M125.16,13.18h.26c0-.07-.25-.13-.16-.16C125,13,125,13,125.16,13.18Z" transform="translate(0.03 0)"/><path d="M124.89,13.34H125S125,13.28,124.89,13.34Z" transform="translate(0.03 0)"/><path d="M125.31,13.29H125c0,.05,0,.14.13,0C125.12,13.39,125.18,13.33,125.31,13.29Z" transform="translate(0.03 0)"/><path d="M125.45,13.37c.12.09.29.16,0,.21C126,13.64,125.93,13.43,125.45,13.37Z" transform="translate(0.03 0)"/><path d="M126.51,14.32l.16.12.18-.06C126.76,14.41,126.52,14.23,126.51,14.32Z" transform="translate(0.03 0)"/><path d="M123.67,12.73c0,.06.05.17.05.25h.19C123.83,12.89,123.67,12.81,123.67,12.73Z" transform="translate(0.03 0)"/><path d="M123.73,13h-.29C123.67,13.08,123.73,13,123.73,13Z" transform="translate(0.03 0)"/><polygon points="124.81 13.63 125.3 13.52 124.73 13.62 124.81 13.63"/><polygon points="122.67 12.51 122.85 12.4 122.54 12.55 122.67 12.51"/><path d="M122,12.4c.14-.09-.12-.22,0-.27a1.23,1.23,0,0,0-.53.11A.73.73,0,0,1,122,12.4Z" transform="translate(0.03 0)"/><path d="M121.18,12.32l.26-.08A.75.75,0,0,0,121.18,12.32Z" transform="translate(0.03 0)"/><path d="M123,12.9a.31.31,0,0,0-.18-.21l.07.19Z" transform="translate(0.03 0)"/><path d="M122.88,12.88h0l-.23-.06Z" transform="translate(0.03 0)"/><path d="M123,12.91Z" transform="translate(0.03 0)"/><path d="M124.11,13.34c-.18.06-.53.09-.24.3C124,13.54,123.84,13.42,124.11,13.34Z" transform="translate(0.03 0)"/><path d="M123.1,13.14l.28.1s0-.12.05-.15Z" transform="translate(0.03 0)"/><polygon points="122.98 13.16 123.13 13.14 123.03 13.1 122.98 13.16"/><path d="M121.64,12.57a.94.94,0,0,1-.43,0,2.62,2.62,0,0,0,.49.15S121.81,12.6,121.64,12.57Z" transform="translate(0.03 0)"/><path d="M122.24,12.73Z" transform="translate(0.03 0)"/><polygon points="119.73 12.29 119.75 12.32 119.76 12.29 119.73 12.29"/><path d="M121.71,12.76a.29.29,0,0,0,.28,0h-.28Z" transform="translate(0.03 0)"/><path d="M120.74,12.31l.2.13C120.88,12.38,120.77,12.28,120.74,12.31Z" transform="translate(0.03 0)"/><path d="M122.18,12.68Z" transform="translate(0.03 0)"/><path d="M122.18,12.68l-.18.07h.22Z" transform="translate(0.03 0)"/><path d="M119,13.26c.05-.15.4-.23.65,0,.3-.06.21-.6,0-.93,0,.07,0,.13-.33.16.08.1.59.31.33.41s-.3-.11-.46-.23c.12.22-.53.19-.5.48H119A.2.2,0,0,0,119,13.26Z" transform="translate(0.03 0)"/><path d="M120.25,12.44h.12a1.1,1.1,0,0,1-.36-.28c-.21,0-.26.09-.28.14l.57.13Z" transform="translate(0.03 0)"/><path d="M120.9,12.54c-.12.15-.42.17-.28.38.34.05.27-.09.49-.13-.56-.07.18-.06-.2-.23h.31l-.27-.13h0v.06c-.15-.07,0,0,0-.06h-.57A2.14,2.14,0,0,0,120.9,12.54Z" transform="translate(0.03 0)"/><path d="M123.5,13.93Z" transform="translate(0.03 0)"/><path d="M123.3,13.78a.23.23,0,0,1,.22,0c.1.07,0,.08,0,.14s.3-.06.07-.19h0c-.21-.1-.45-.37-.41-.38A1.14,1.14,0,0,0,123.3,13.78Z" transform="translate(0.03 0)"/><path d="M122.08,13.2h-.48l.21.19V13.3C122.07,13.37,122,13.26,122.08,13.2Z" transform="translate(0.03 0)"/><polygon points="119.69 12.19 119.78 12.03 119.47 12.23 119.69 12.19"/><polygon points="119.09 12.1 119.14 11.96 118.96 12.02 119.09 12.1"/><path d="M84.79,9.71h0Z" transform="translate(0.03 0)"/><path d="M85.78,9.8V9.73S85.74,9.79,85.78,9.8Z" transform="translate(0.03 0)"/><path d="M104.26,9.79c-.18-.17-.37-.42-.37-.25v.18A.56.56,0,0,1,104.26,9.79Z" transform="translate(0.03 0)"/><path d="M94,9.62l.05.06.15-.15Z" transform="translate(0.03 0)"/><path d="M93.76,10.31l-.25-.14A1,1,0,0,0,93.76,10.31Z" transform="translate(0.03 0)"/><path d="M79.37,9.53l-.17.16C79.45,9.71,79.34,9.61,79.37,9.53Z" transform="translate(0.03 0)"/><path d="M112.89,11.1a1.45,1.45,0,0,0-.41-.17C112.67,11.06,112.81,11.23,112.89,11.1Z" transform="translate(0.03 0)"/><path d="M85.31,7.94c-.09,0-.13.06-.13.09S85.33,8,85.31,7.94Z" transform="translate(0.03 0)"/><path d="M112,10.85l.08.05a1.35,1.35,0,0,1,.41,0A.47.47,0,0,0,112,10.85Z" transform="translate(0.03 0)"/><path d="M116.65,11.59Z" transform="translate(0.03 0)"/><path d="M117.16,12.37a.11.11,0,0,0-.07.07A.14.14,0,0,1,117.16,12.37Z" transform="translate(0.03 0)"/><path d="M110.55,11.7Z" transform="translate(0.03 0)"/><path d="M116.83,11.7l-.15-.08Z" transform="translate(0.03 0)"/><path d="M116.82,11.62h.11S116.94,11.61,116.82,11.62Z" transform="translate(0.03 0)"/><path d="M116.47,11.57l.2.05h0Z" transform="translate(0.03 0)"/><path d="M70.28,8.53h0C70.12,8.58,70.18,8.57,70.28,8.53Z" transform="translate(0.03 0)"/><path d="M100.7,11.13Z" transform="translate(0.03 0)"/><path d="M100.23,11.2c.22-.19.33-.15.47-.09l-.09-.51Z" transform="translate(0.03 0)"/><path d="M83.67,9.63s.13.15.07.14c.4.28,1.17-.11,1-.05l.43-.1c.12,0,.08.11,0,.09h.64a2.57,2.57,0,0,1,.42-.24c.16.09-.08,0,0,.12a2.65,2.65,0,0,1,.93.38h-.34c.19.32.46.23.81.45-.08-.11-.71-.54-.32-.64a.52.52,0,0,0,.46,0c0,.19.4.42.4.42.28,0,.78,0,.84.14.48.08-.31-.34.27-.34.39.13,1.12.1,1.21.18l.27-.18c.06,0,0,.07,0,.1.22-.06,0-.25.38-.29.11-.27,1,.34,1,.44a3.43,3.43,0,0,0,1-.33l.38.2c-.27-.22.12-.4.46-.55l-.23-.23.53-.08c.06,0,0,.13-.1.22l.1-.05c.18.11.06.25-.08.37L94,9.68c-.14.14-.28.3-.27.44a.4.4,0,0,1,.18-.05s-.06.07,0,.1.07,0,.16-.08l.09.29v-.11l.66.24a4.19,4.19,0,0,1,1.75-.63c-.21.18-.08.33-.11.57-.18-.28-.6,0-1,0,.2,0,.15.16.09.19l.73-.16c0,.2.13.16.31.27-.1-.41.55-.2.86-.29,0,.13-.08.26-.43.19.35.34.55-.4.9-.11h-.17c.21-.09.69.05.56.15h-.09c.56.11,1.73.2,1.85-.12a2.36,2.36,0,0,1-.16.45l1.15-1c-.12.27.14,1-.35,1.1a.84.84,0,0,0,.59.06c-.09-.05-.18-.44-.05-.45.31.36.22.2.61.52-.13-.08.08-.51.3-.46,0,.06,0,.44-.12.48l.6-.37c-.15.06-.07.37,0,.51,0-.09.47.07.62,0l-.22-.13c.6.15.69-.54,1.29-.43-.09.08-.26.53,0,.63.17-.21.77-1,1.34-1.09l.09.14.43-.09a9.08,9.08,0,0,1-1.55,1.14c.22.13,0,.16.39.19.1.14-.21.16-.31.15l.79.19c0-.27.65-.18.65-.4l-.9.15c0-.27.6-.67,1.16-.55.13.12-.17.45-.17.54a.84.84,0,0,1,.6,0l-.26.11c.3.14.56-.27.91,0,.13,0,.34.39.39.24a2.09,2.09,0,0,1,.1-1.46,4.44,4.44,0,0,1,.77.55c.18.27-.4.51-.25.74,0-.07.15-.14.2-.16s-.09.21.21.22c.09-.26.6.11.17-.2.3,0,.3.1.65.14-.08-.19.4-.54.7-.57a.31.31,0,0,0,.05.21c.59.12.9.29,1.45.38,0,.07.3.19.17.29a.58.58,0,0,1,.35-.09c.3.28-.39,0-.18.29,0-.15.48-.14.74-.2,0-.25-.56-.14-.82-.08.05-.33.53-.6,1.14-.66s.17.24.25.21c.86.2.84-.45,1.52-.09.25.26-.06.42,0,.58-.39,0-.56-.23-.81-.26l.3.15a.7.7,0,0,1-.52,0c.21.23,1.46.28,2.1.57.13,0,.35-.08.27-.19h-.22c-.17-.2.44-.16.18-.29a1.57,1.57,0,0,1,1,0v.25c0-.07-.24-.19-.36-.14.19-.08.56.43.79.15l-.25-.21a1.8,1.8,0,0,1,1-.12c-.12-.26-.09,0-.29-.31.16.38-.91-.18-.62.24-.2-.36-.42-.22-.71-.55,0,.08.09.17-.2.08l-.08.06h0a.35.35,0,0,1,.13.15c-.18.15-.65.06-.83.13s.09-.08,0-.18l-.26.1c0-.18-.42-.37,0-.4l-.37-.07a1.06,1.06,0,0,0-.7-.18c-.17-.07-.48.12-.3,0h-.61c-.58-.12-1.24.09-1.86-.33a1.76,1.76,0,0,1-.73-.07v-.16c-.26,0-.73-.27-.87-.13-.21-.45-1.21-.27-1.64-.41v.19a4,4,0,0,0-1,0v.18c-.35.1-.82-.24-1.34-.3,0-.06.17,0,.26,0-.56-.48-1.34.11-1.86-.25a.38.38,0,0,1-.34,0h0l-.18-.12a.66.66,0,0,0,.15.12,2,2,0,0,0-.44,0V9.8h0c-.15-.09-.14.07-.07.22a.81.81,0,0,0-.23.09c-.09-.32-.43,0-.57-.3-.13.14-.82,0-.95.34v-.06a.7.7,0,0,0-.52,0V9.84l-.43.27c-.22-.17-.31-.27,0-.43-.6.21-.47.05-1,.27V9.8c-.17,0-.47.16-.56,0-.35-.34-1.91-.26-2.87-.64.14.48-.44-.25-.52.09,0-.11-.18-.19,0-.27-.52.05-.74-.25-1.13,0,0-.11.12-.15.08-.22s-.17.08-.22,0,.08-.08.17-.12c-.52,0-.61.29-.68.6-.25-.24-.4-.24-.6,0-.08-.11-.22-.23.1-.24-.18,0-1.09-.26-1.13,0-.05-.07-.25,0-.3,0a6,6,0,0,0-.84-.09l.11.05c-.19.29-.34,0-.66,0h0c-.72-.29-.33.07-1-.24v.19c-.1.4-.62-.3-1.06-.18l.14.12c-.24.12-.6-.6-.83-.67a.27.27,0,0,0,.16-.07c-.59-.29-.1.24-.56.26-.07-.14.14-.33-.17-.38-.14-.12-.92.36-1.31.07.08.11.17.22,0,.28s-.84-.45-1.16-.15a.11.11,0,0,1-.1-.12V8a3.19,3.19,0,0,0-1,.24c-.18-.67-1.55.21-1.51-.39h-.76V7.79a.94.94,0,0,0-.84.19c-.11,0,0-.1,0-.13A1.56,1.56,0,0,0,79.73,8l-.05-.2c-.17.1-1-.37-1.72-.18a.14.14,0,0,1,0-.09c-.79.18-1.85-.64-2.17.06l-.53.15c.67.09-.11.3.16.43-.26,0-.67-.24-.34-.27h0c.14-.36-.82-.17-.8-.42-1.32,0-2.59-.29-3.83-.34l.13.29h-.43c-.11-.07-.15-.23.16-.21-.16-.17-.52.12-.53.18-.6-.13.24-.33.06-.34h-.19c-.21.11-.23.24-.6.21s-.12-.18-.21-.19,0,0-.14,0H68.2l.21.23c-.24.11-.51,0-.26.24-.36-.41-2-.17-2.25-.29a2.14,2.14,0,0,1-1.08.14c.1,0,.17.3-.19.27.13-.53-.65-.22-1-.59.13.12-.12.14-.36.18s-.47.1-.25.26H62.9a.14.14,0,0,1,0-.08.23.23,0,0,0,.1-.2h-.07l-.14-.05L62.14,7a4.46,4.46,0,0,0-1.36-.21c0,.07.13.18-.07.27l-.47-.35c-.18,0-.17.39-.49.16,0,.06.11.14,0,.17-1.77-.3-3.49.48-5.3.08.25.1.1.14-.08.16.12,0,0,.17,0,.26l-.76-.16c-.1.28-.77.13-.81.38l.22-.08c-.26.33.52.59.52,1,.29-.38,1,.37,1.44-.17.13.06-.09.13,0,.21.12-.18.29-.23.61-.2h0a10.4,10.4,0,0,1,2.26,0l-.09-.18a.78.78,0,0,1,.36.1c.22-.3-.6,0-.4-.3.31.35,1.5-.09,1.7.34.32,0-.1-.21.22-.22l.09.11.08-.15a.34.34,0,0,1,.32.27H60a1.66,1.66,0,0,0,.84,0l-.3-.08a5.42,5.42,0,0,1,1.33.05l.3.05h.33l.25.08h0c0-.35-.08.79.09-.79H63v.08l.07.35v.28h.08l-.07-.08c.63-.19.52.07,1.24,0h0a1,1,0,0,1,.54-.13c-.18.1.35.2.11.31.72-.18,2.52-.47,2.86,0,.36-.4,1.42-.15,1.7,0,.16-.24.37,0,.42-.29,0,0,.07-.37.59-.18a.87.87,0,0,1-.31.18c.15.1-.23.09-.58.32.16.14.65-.21.47.12.26-.42.6.07,1-.24v.19a.78.78,0,0,1,.33-.1L71.27,9c.34-.2.64.2,1,.1-.68,0,0,.13,1,.07C73.14,9.17,72.8,9,73,9a1.31,1.31,0,0,1,.51.23c.62,0-.09-.2.18-.3.2.24.78-.34,1.41-.16l.05.2L75,9.19A5.36,5.36,0,0,1,76.55,9c-.11.11-.22.26-.41.07,0,.06-.1.11-.13.17a.69.69,0,0,0,.56,0L77.23,9c.1.08,0,.13-.07.18a2.79,2.79,0,0,1,.42-.1c-.06.15-.05.31-.33.37l.62-.14c0,.07.3.2.22.25a4.71,4.71,0,0,0,1.46-.18,9.93,9.93,0,0,0,1.86,0C81.88,9.32,83.59,10.15,83.67,9.63Zm3.58.21c-.1,0-.29.14-.35,0,.1-.19.2-.08.36,0Zm7.39.22c-.08.06-.18,0-.29-.07A.51.51,0,0,1,94.64,10.06Zm20.59,1.45h0c-.23-.11-.14-.06,0,0Zm.42.15v-.07c0-.07-.14,0-.24,0S115.51,11.68,115.65,11.66ZM68.93,7.22l.08.05C68.82,7.32,68.88,7.27,68.93,7.22Z" transform="translate(0.03 0)"/><path d="M93.78,10.23a.2.2,0,0,1,0-.11S93.71,10.19,93.78,10.23Z" transform="translate(0.03 0)"/><path d="M108.72,12.18a.37.37,0,0,1-.16-.12A.21.21,0,0,0,108.72,12.18Z" transform="translate(0.03 0)"/><path d="M118,11.75h-.28a.41.41,0,0,1,.24.11S117.9,11.73,118,11.75Z" transform="translate(0.03 0)"/><path d="M120.16,13.34h.13v-.09C120.13,13.22,120,13.27,120.16,13.34Z" transform="translate(0.03 0)"/><path d="M118.13,12.41c0,.16.18.14.37.15h0C118.57,12.34,118.35,12.38,118.13,12.41Z" transform="translate(0.03 0)"/><path d="M118.55,12.56h.18C118.77,12.5,118.66,12.56,118.55,12.56Z" transform="translate(0.03 0)"/><path d="M116.21,11.65c.08.06.09-.19.13-.12C116.48,11.35,115.69,11.67,116.21,11.65Z" transform="translate(0.03 0)"/><polygon points="118.22 12.96 118.19 12.75 118.05 12.89 118.22 12.96"/><path d="M116.7,12.54l.3.11.09-.05C116.9,12.56,116.7,12.48,116.7,12.54Z" transform="translate(0.03 0)"/><path d="M117.09,12.6a.52.52,0,0,0,.25,0Z" transform="translate(0.03 0)"/><polygon points="117.79 12.94 117.71 12.88 117.49 12.83 117.79 12.94"/><path d="M113.39,11.94H113c0,.06,0,.12.17.11S113.43,12,113.39,11.94Z" transform="translate(0.03 0)"/><path d="M114.32,12.64c-.08-.06-.08-.1-.12-.17l-.05.24Z" transform="translate(0.03 0)"/><path d="M113.33,12.53c0,.06-.52.11-.09.17C113.28,12.64,113.63,12.64,113.33,12.53Z" transform="translate(0.03 0)"/><polygon points="108.33 11.44 108.41 11.45 108.46 11.06 108.33 11.44"/><path d="M103.68,11.77c.39.15.13-.23.47-.07.11-.08-.28-.14-.18-.2C103.73,11.57,103.61,11.5,103.68,11.77Z" transform="translate(0.03 0)"/><path d="M104,11.5h0Z" transform="translate(0.03 0)"/><path d="M87.93,10.4v-.06c0-.07-.09-.08-.21-.1Z" transform="translate(0.03 0)"/><polygon points="84.47 9.94 84.53 9.95 84.44 9.71 84.47 9.94"/><path d="M60.17,9.07c.91,0,3.42-.3,3.92-.31s1.07,0,1.6,0A17.7,17.7,0,0,0,62.82,8a35.45,35.45,0,0,0-7.23-.47l.22-.21c.38-.36.78-.74,1.16-1.14,1-1.1,1.42-1.93,1.21-2.62a1.26,1.26,0,0,0-1-.85H57c-.69,0-1.33.65-2.53,2-.12.14-.5.74-.5.74a8.39,8.39,0,0,1-1.68,2.17.61.61,0,0,1-.36.13,34.76,34.76,0,0,0-5,.72c-1.1.21-2.15.42-3.16.54a3.47,3.47,0,0,0-1.35.47,1.27,1.27,0,0,0-.25,1.65c.73,1.37,3.11.45,4.19.12l.24-.07a20.37,20.37,0,0,1,2.8-.49l.77-.1c-1.23,1.75-2.63,3.43-4,5.07A57.8,57.8,0,0,0,40.68,23l-.16.27c-.69,1.11-2,3.16-.91,4.34a1.86,1.86,0,0,0,1.45.57,9,9,0,0,0,4-1.43c1.37-.72,2.74-1.41,4.12-2.11l1.38-.7C54.26,22,54.11,21.34,54,21a1,1,0,0,0-1-.74,6,6,0,0,0-2.7,1.28c-.33.21-.67.43-.83.51L48,22.79h-.09a34.3,34.3,0,0,1-5.69,2.46,7,7,0,0,1,.49-.85c.13-.21.25-.4.35-.58a16.15,16.15,0,0,1,1.83-2.54,22.89,22.89,0,0,0,1.62-2.14c1.28-2,2.78-3.94,4.23-5.82l1.18-1.54.13-.18.62-.82a.92.92,0,0,1,.54-.34l2.29-.5A37.07,37.07,0,0,1,60.17,9.07Z" transform="translate(0.03 0)"/><path d="M54.46,29a1.15,1.15,0,0,1-.54-.13,1.32,1.32,0,0,1-.69-.9c-.24-1.09.79-2.54,2-4.06h0l.23-.31c.21-.3.54-.74.9-1.2s1.33-1.72,1.77-2.44l-.07-.29a4.91,4.91,0,0,1,.11-1.36A1.75,1.75,0,0,1,59.69,17a1.9,1.9,0,0,1,1.35.27h0a1.3,1.3,0,0,1,.53.76c.19.76-.28,1.59-1,2.53a31.1,31.1,0,0,1,3-2,21.32,21.32,0,0,1,4.86-2.24c1-.26,2.36-.45,3.1.45a1.9,1.9,0,0,1,.33,1.64,1.87,1.87,0,0,1-1.34,1.52,1.45,1.45,0,0,1-1.69-.85l-.07-.19a19.34,19.34,0,0,0-4.5,1.81A34.25,34.25,0,0,0,59,24.95l-.07.06c-.16.14-.55.63-.87,1C56.4,27.87,55.41,29,54.46,29Z" transform="translate(0.03 0)"/><path d="M71.62,28.6a1.81,1.81,0,0,1-1.74-.88c-.69-1.27.39-3.14,2-5.63a15.74,15.74,0,0,0,.85-1.4l.05-.24a2.5,2.5,0,0,1,.85-1.68,1.44,1.44,0,0,1,1.58.08,1.52,1.52,0,0,1,.67,1.06c.14,1-.61,2-1.35,2.89v0l-.59.67a14.13,14.13,0,0,0-1,1.23l-.17.24a9,9,0,0,0-.65,1c1.26-.12,2.9-1.21,4.24-2.09.8-.53,1.61-1,2.41-1.56A13.63,13.63,0,0,1,83.13,20c.63-.12,1.44-.26,1.86.36a1.45,1.45,0,0,1-.06,1.46l-.08.2A9.47,9.47,0,0,1,84,23.55a10.2,10.2,0,0,0-.59,1,2.93,2.93,0,0,0-.23.63A6.72,6.72,0,0,0,84.9,25a5.66,5.66,0,0,1,2.78,0h0c.51.24.91.78.46,1.37h0a.49.49,0,0,1-.27.24l-.21.08a19.74,19.74,0,0,1-3.68.93c-.92.14-2.69.5-3.43-.6a1.45,1.45,0,0,1-.1-1.37,7.49,7.49,0,0,1,1-1.85h0c-1.64.82-3.17,1.69-4.5,2.47-.81.47-1.69,1.16-2.78,1.73a5.28,5.28,0,0,1-1.23.47A5.61,5.61,0,0,1,71.62,28.6Z" transform="translate(0.03 0)"/><path d="M90.26,31.1A1.38,1.38,0,0,1,89,30.41c-.65-1.11.65-3.09,4.66-8.12.54-.68,1-1.25,1.14-1.47.35-.52.85-1.41,1.24-2.12a3.22,3.22,0,0,1,1.6-1.5,1.27,1.27,0,0,1,1.62.48c.38.73-.13,1.61-.54,2.2a42.15,42.15,0,0,1-2.9,3.66l-.4.45-.79.91c.48-.44,1-.89,1.41-1.33.63-.6,1.22-1.17,1.77-1.65a33.33,33.33,0,0,1,4.14-3,12.65,12.65,0,0,1,2.16-1.09c.75-.29,1.89-.61,2.54.15a1.5,1.5,0,0,1,.3,1.26,5.15,5.15,0,0,1-1.73,2.44,8.25,8.25,0,0,0-.74.77A13.39,13.39,0,0,0,103,24.86l.66-.53.67-.53c.22-.17.48-.39.75-.62a6.29,6.29,0,0,1,2.61-1.63,1.56,1.56,0,0,1,1.75.6c.47.85-.19,1.89-.82,2.9h0l-.25.41a3.47,3.47,0,0,0-.2.41,5.84,5.84,0,0,0,1.71-.5,46.79,46.79,0,0,0,5.1-2.55,1.9,1.9,0,0,1,.92-.27h0a.94.94,0,0,1,.92.67s.12.83-2.07,2.38a8.2,8.2,0,0,1-.84.5,18.14,18.14,0,0,1-5,1.9,4.09,4.09,0,0,1-2.76-.13l-.25-.14-.12-.26a2.42,2.42,0,0,1-.17-1.74c-.24.18-.5.4-.78.63A6.92,6.92,0,0,1,102,28.1a1.69,1.69,0,0,1-1.89-.71c-.59-1.12.48-3,1.18-4l.55-.82,1-1.42A19,19,0,0,0,100.14,23l-.53.4a39.81,39.81,0,0,0-3.22,2.78l-1,.92c-.09.08-.33.34-.56.59C92.75,29.89,91.4,31.1,90.26,31.1Z" transform="translate(0.03 0)"/><path d="M118.15,28.6a.85.85,0,0,1-.9-.8h0a2,2,0,0,1,.44-1.4c.46-.75,2.27-1.36,2.74-.31.27.61-.27,1.21-.44,1.41A3.45,3.45,0,0,1,118.15,28.6Z" transform="translate(0.03 0)"/><path d="M126.26,31.32a2.17,2.17,0,0,1-1.78-.75,3,3,0,0,1-.37-2.55c.41-2,2-4,3.41-5.8.51-.64,1-1.25,1.36-1.8,1.23-1.79,2.47-3.51,3.68-5.11l1-1.26c1.24-1.61,5.79-7.6,6.61-8.16.63-.43,1.56-.86,2.19-.19a1.47,1.47,0,0,1,.41,1.17c-.11,1-1.21,1.77-2.1,2.38a6.89,6.89,0,0,0-.59.44,23.88,23.88,0,0,0-2,2.51c-.31.41-.65.88-1,1.32a101.48,101.48,0,0,0-9.5,13.39l-.15.26a6.93,6.93,0,0,0-.75,1.57c1,.12,4.38-2.12,5.08-2.58,1.07-.71,2.14-1.42,3.26-2,.81-.45,2.07-1.33,3-.8l1,.59-.86.83a27.27,27.27,0,0,1-5.23,3.57c-.92.53-1.78,1-2.55,1.54A9,9,0,0,1,126.26,31.32Z" transform="translate(0.03 0)"/><path d="M137.31,30.53a1.57,1.57,0,0,1-1.3-.66c-.69-.94-.48-2.68-.1-3.88.53-1.66.48-3.55,1.43-5.06.55-.88,2-1.84,2.83-.72.45.61.29,1.55-.61,3.44-.19.41-.39.76-.55,1.08a9.64,9.64,0,0,0-.83,1.84c-.05.18-.1.34-.13.48l.38-.3a12.57,12.57,0,0,1,1.32-1l2-1.66h0c1.43-1.18,2.78-2.3,4.1-3.48.78-.7,1.55-1.47,2.3-2.22.93-.93,1.88-1.88,2.87-2.72h0a1,1,0,0,1,1.44.59c.17,1.66-2.21,3.7-5.35,6.21-.55.44-1,.82-1.26,1-.66.61-1.32,1.26-2,2a55.69,55.69,0,0,1-4.78,4.33A3,3,0,0,1,137.31,30.53Z" transform="translate(0.03 0)"/><path d="M142.09,5.48c2.58,1.25,1.84,4.2.89,6.34-2.3,5.15-6.94,7-9.89,8.74-3.89,2.27-9.29,3.41-11.47,2.8-.25-.07-.28-.42-.24-.58.14-.52.81-.6,1.35-.67a34.4,34.4,0,0,0,6.66-2.18c6.82-3.3,9.79-4.67,12-9.92,0,0,.2-1.72-1.44-.2a.52.52,0,0,1-.24.13,15.58,15.58,0,0,1-2.58.47c.2-.17,3.29-4.37,3.41-4.4S141.27,5.09,142.09,5.48Z" transform="translate(0.03 0)"/><path d="M146.45,25.94" transform="translate(0.03 0)"/></g></g></svg>